<?xml version="1.0" encoding="UTF-8" standalone="no"?><!DOCTYPE svg PUBLIC "-//W3C//DTD SVG 1.1//EN" "http://www.w3.org/Graphics/SVG/1.1/DTD/svg11.dtd"><!-- Generated by graphviz version 2.40.1 (20161225.0304)
 --><!-- Title: %0 Pages: 1 --><svg xmlns="http://www.w3.org/2000/svg" xmlns:xlink="http://www.w3.org/1999/xlink" width="1693pt" height="1744pt" viewBox="0.00 0.00 1692.76 1743.83">
<g id="graph0" class="graph" transform="scale(1 1) rotate(0) translate(14.4 1729.4313)">
<title>%0</title>
<polygon fill="#ffffff" stroke="transparent" points="-14.4,14.4 -14.4,-1729.4313 1678.3554,-1729.4313 1678.3554,14.4 -14.4,14.4"/>
<!-- getIngredientsRequest -->
<g id="node1" class="node">
<title>getIngredientsRequest</title>
<ellipse fill="#ff6200" stroke="#ff6200" cx="383.9362" cy="-926.4424" rx="150.3248" ry="150.3248"/>
<text text-anchor="middle" x="383.9362" y="-919.8424" font-family="ING Me" font-size="22.00" fill="#ffffff">getIngredientsRequest</text>
</g>
<!-- PizzaIngredientApi -->
<g id="node3" class="node">
<title>PizzaIngredientApi</title>
<path fill="#525199" stroke="#525199" stroke-width="2" d="M554.4796,-740.2309C554.4796,-740.2309 335.3928,-740.2309 335.3928,-740.2309 329.3928,-740.2309 323.3928,-734.2309 323.3928,-728.2309 323.3928,-728.2309 323.3928,-653.4292 323.3928,-653.4292 323.3928,-647.4292 329.3928,-641.4292 335.3928,-641.4292 335.3928,-641.4292 554.4796,-641.4292 554.4796,-641.4292 560.4796,-641.4292 566.4796,-647.4292 566.4796,-653.4292 566.4796,-653.4292 566.4796,-728.2309 566.4796,-728.2309 566.4796,-734.2309 560.4796,-740.2309 554.4796,-740.2309"/>
<text text-anchor="middle" x="444.9362" y="-684.23" font-family="ING Me" font-size="22.00" fill="#ffffff">PizzaIngredientApi</text>
</g>
<!-- getIngredientsRequest&#45;&gt;PizzaIngredientApi -->
<g id="edge1" class="edge">
<title>getIngredientsRequest-&gt;PizzaIngredientApi</title>
<path fill="none" stroke="#000000" d="M421.7007,-780.5771C424.4503,-769.9568 427.1163,-759.6594 429.602,-750.0584"/>
<polygon fill="#000000" stroke="#000000" points="433.0049,-750.8789 432.123,-740.3208 426.2283,-749.1244 433.0049,-750.8789"/>
</g>
<!-- GetIngredientsResponse404Unit -->
<g id="node2" class="node">
<title>GetIngredientsResponse404Unit</title>
<path fill="#767676" stroke="#767676" d="M433.1976,-603.0393C433.1976,-603.0393 125.378,-537.7209 125.378,-537.7209 119.5086,-536.4755 119.5086,-533.9846 125.378,-532.7391 125.378,-532.7391 433.1976,-467.4208 433.1976,-467.4208 439.0669,-466.1753 450.8055,-466.1753 456.6748,-467.4208 456.6748,-467.4208 764.4944,-532.7391 764.4944,-532.7391 770.3638,-533.9846 770.3638,-536.4755 764.4944,-537.7209 764.4944,-537.7209 456.6748,-603.0393 456.6748,-603.0393 450.8055,-604.2847 439.0669,-604.2847 433.1976,-603.0393"/>
<text text-anchor="middle" x="444.9362" y="-528.63" font-family="ING Me" font-size="22.00" fill="#ffffff">GetIngredientsResponse404Unit</text>
</g>
<!-- headers -->
<g id="node6" class="node">
<title>headers</title>
<ellipse fill="#ff6200" stroke="#ff6200" cx="741.9362" cy="-370.015" rx="58.6306" ry="58.6306"/>
<text text-anchor="middle" x="741.9362" y="-363.415" font-family="ING Me" font-size="22.00" fill="#ffffff">headers</text>
</g>
<!-- GetIngredientsResponse404Unit&#45;&gt;headers -->
<g id="edge10" class="edge">
<title>GetIngredientsResponse404Unit-&gt;headers</title>
<path fill="none" stroke="#000000" d="M536.4694,-484.312C583.6299,-458.0776 639.8254,-426.8172 681.5167,-403.6251"/>
<polygon fill="#000000" stroke="#000000" points="683.4131,-406.5754 690.4505,-398.6555 680.0101,-400.4582 683.4131,-406.5754"/>
</g>
<!-- PizzaIngredientApi&#45;&gt;GetIngredientsResponse404Unit -->
<g id="edge13" class="edge">
<title>PizzaIngredientApi-&gt;GetIngredientsResponse404Unit</title>
<path fill="none" stroke="#000000" d="M444.9362,-641.5972C444.9362,-633.406 444.9362,-624.7242 444.9362,-615.9925"/>
<polygon fill="#000000" stroke="#000000" points="448.4363,-615.7458 444.9362,-605.7458 441.4363,-615.7458 448.4363,-615.7458"/>
</g>
<!-- GetIngredientsResponse200ApplicationJson -->
<g id="node5" class="node">
<title>GetIngredientsResponse200ApplicationJson</title>
<path fill="#767676" stroke="#767676" d="M1217.0899,-603.6159C1217.0899,-603.6159 805.7441,-537.1444 805.7441,-537.1444 799.821,-536.1872 799.821,-534.2729 805.7441,-533.3157 805.7441,-533.3157 1217.0899,-466.8442 1217.0899,-466.8442 1223.013,-465.8871 1234.8594,-465.8871 1240.7825,-466.8442 1240.7825,-466.8442 1652.1283,-533.3157 1652.1283,-533.3157 1658.0514,-534.2729 1658.0514,-536.1872 1652.1283,-537.1444 1652.1283,-537.1444 1240.7825,-603.6159 1240.7825,-603.6159 1234.8594,-604.573 1223.013,-604.573 1217.0899,-603.6159"/>
<text text-anchor="middle" x="1228.9362" y="-528.63" font-family="ING Me" font-size="22.00" fill="#ffffff">GetIngredientsResponse200ApplicationJson</text>
</g>
<!-- PizzaIngredientApi&#45;&gt;GetIngredientsResponse200ApplicationJson -->
<g id="edge4" class="edge">
<title>PizzaIngredientApi-&gt;GetIngredientsResponse200ApplicationJson</title>
<path fill="none" stroke="#000000" d="M566.576,-666.6883C688.3983,-642.5103 878.142,-604.852 1023.3757,-576.0275"/>
<polygon fill="#000000" stroke="#000000" points="1024.1877,-579.4347 1033.315,-574.0549 1022.8249,-572.5686 1024.1877,-579.4347"/>
</g>
<!-- PizzaProcess -->
<g id="node4" class="node">
<title>PizzaProcess</title>
<path fill="#767676" stroke="#767676" d="M341.9648,-1248.6941C341.9648,-1248.6941 205.2319,-1188.1156 205.2319,-1188.1156 199.7462,-1185.6852 199.7462,-1180.8244 205.2319,-1178.3939 205.2319,-1178.3939 341.9648,-1117.8154 341.9648,-1117.8154 347.4505,-1115.385 358.4219,-1115.385 363.9076,-1117.8154 363.9076,-1117.8154 500.6405,-1178.3939 500.6405,-1178.3939 506.1262,-1180.8244 506.1262,-1185.6852 500.6405,-1188.1156 500.6405,-1188.1156 363.9076,-1248.6941 363.9076,-1248.6941 358.4219,-1251.1245 347.4505,-1251.1245 341.9648,-1248.6941"/>
<text text-anchor="middle" x="352.9362" y="-1176.6548" font-family="ING Me" font-size="22.00" fill="#ffffff">PizzaProcess</text>
</g>
<!-- PizzaProcess&#45;&gt;getIngredientsRequest -->
<g id="edge2" class="edge">
<title>PizzaProcess-&gt;getIngredientsRequest</title>
<path fill="none" stroke="#000000" d="M361.0002,-1116.4507C362.1557,-1106.8777 363.3836,-1096.7059 364.6472,-1086.2377"/>
<polygon fill="#000000" stroke="#000000" points="368.1448,-1086.4675 365.8685,-1076.1201 361.1952,-1085.6286 368.1448,-1086.4675"/>
</g>
<!-- GetIngredientsResponse200ApplicationJson&#45;&gt;headers -->
<g id="edge3" class="edge">
<title>GetIngredientsResponse200ApplicationJson-&gt;headers</title>
<path fill="none" stroke="#000000" d="M1088.4024,-487.5539C995.9608,-456.193 879.2505,-416.599 807.6383,-392.3045"/>
<polygon fill="#000000" stroke="#000000" points="808.4344,-388.8787 797.84,-388.9804 806.1855,-395.5076 808.4344,-388.8787"/>
</g>
<!-- body -->
<g id="node7" class="node">
<title>body</title>
<ellipse fill="#ff6200" stroke="#ff6200" cx="1158.9362" cy="-370.015" rx="42.3529" ry="42.3529"/>
<text text-anchor="middle" x="1158.9362" y="-363.415" font-family="ING Me" font-size="22.00" fill="#ffffff">body</text>
</g>
<!-- GetIngredientsResponse200ApplicationJson&#45;&gt;body -->
<g id="edge12" class="edge">
<title>GetIngredientsResponse200ApplicationJson-&gt;body</title>
<path fill="none" stroke="#000000" d="M1200.8679,-468.9827C1193.7491,-452.181 1186.2319,-434.4387 1179.5587,-418.6885"/>
<polygon fill="#000000" stroke="#000000" points="1182.6478,-417.0076 1175.5238,-409.1654 1176.2024,-419.7385 1182.6478,-417.0076"/>
</g>
<!-- PizzaDelivery -->
<g id="node8" class="node">
<title>PizzaDelivery</title>
<path fill="#525199" stroke="#525199" stroke-width="2" d="M1245.0424,-275.4008C1245.0424,-275.4008 1072.83,-275.4008 1072.83,-275.4008 1066.83,-275.4008 1060.83,-269.4008 1060.83,-263.4008 1060.83,-263.4008 1060.83,-188.5992 1060.83,-188.5992 1060.83,-182.5992 1066.83,-176.5992 1072.83,-176.5992 1072.83,-176.5992 1245.0424,-176.5992 1245.0424,-176.5992 1251.0424,-176.5992 1257.0424,-182.5992 1257.0424,-188.5992 1257.0424,-188.5992 1257.0424,-263.4008 1257.0424,-263.4008 1257.0424,-269.4008 1251.0424,-275.4008 1245.0424,-275.4008"/>
<text text-anchor="middle" x="1158.9362" y="-219.4" font-family="ING Me" font-size="22.00" fill="#ffffff">PizzaDelivery</text>
</g>
<!-- GetIngredientsResponse200ApplicationJson&#45;&gt;PizzaDelivery -->
<g id="edge8" class="edge">
<title>GetIngredientsResponse200ApplicationJson-&gt;PizzaDelivery</title>
<path fill="none" stroke="#000000" d="M1231.0462,-465.2538C1230.4614,-420.2483 1226.0217,-361.0729 1209.9362,-311.2 1207.0299,-302.189 1203.0232,-293.1229 1198.5222,-284.4402"/>
<polygon fill="#000000" stroke="#000000" points="1201.5358,-282.6557 1193.678,-275.549 1195.3889,-286.0048 1201.5358,-282.6557"/>
</g>
<!-- body&#45;&gt;PizzaDelivery -->
<g id="edge5" class="edge">
<title>body-&gt;PizzaDelivery</title>
<path fill="none" stroke="#000000" d="M1158.9362,-327.5847C1158.9362,-314.3652 1158.9362,-299.5359 1158.9362,-285.3789"/>
<polygon fill="#000000" stroke="#000000" points="1162.4363,-285.2219 1158.9362,-275.2219 1155.4363,-285.2219 1162.4363,-285.2219"/>
</g>
<!-- PizzaPizzaSuccess -->
<g id="node12" class="node">
<title>PizzaPizzaSuccess</title>
<path fill="#767676" stroke="#767676" d="M1147.5633,-136.8718C1147.5633,-136.8718 961.4675,-74.2284 961.4675,-74.2284 955.781,-72.3142 955.781,-68.4858 961.4675,-66.5716 961.4675,-66.5716 1147.5633,-3.9282 1147.5633,-3.9282 1153.2497,-2.014 1164.6227,-2.014 1170.3091,-3.9282 1170.3091,-3.9282 1356.4049,-66.5716 1356.4049,-66.5716 1362.0914,-68.4858 1362.0914,-72.3142 1356.4049,-74.2284 1356.4049,-74.2284 1170.3091,-136.8718 1170.3091,-136.8718 1164.6227,-138.786 1153.2497,-138.786 1147.5633,-136.8718"/>
<text text-anchor="middle" x="1158.9362" y="-63.8" font-family="ING Me" font-size="22.00" fill="#ffffff">PizzaPizzaSuccess</text>
</g>
<!-- PizzaDelivery&#45;&gt;PizzaPizzaSuccess -->
<g id="edge14" class="edge">
<title>PizzaDelivery-&gt;PizzaPizzaSuccess</title>
<path fill="none" stroke="#000000" d="M1158.9362,-176.7672C1158.9362,-168.576 1158.9362,-159.8941 1158.9362,-151.1624"/>
<polygon fill="#000000" stroke="#000000" points="1162.4363,-150.9157 1158.9362,-140.9157 1155.4363,-150.9158 1162.4363,-150.9157"/>
</g>
<!-- pizzaId -->
<g id="node9" class="node">
<title>pizzaId</title>
<ellipse fill="#ff6200" stroke="#ff6200" cx="142.9362" cy="-1481.143" rx="57.1767" ry="57.1767"/>
<text text-anchor="middle" x="142.9362" y="-1474.543" font-family="ING Me" font-size="22.00" fill="#ffffff">pizzaId</text>
</g>
<!-- pizzaId&#45;&gt;PizzaDelivery -->
<g id="edge7" class="edge">
<title>pizzaId-&gt;PizzaDelivery</title>
<path fill="none" stroke="#000000" d="M126.0657,-1426.5646C109.2578,-1367.2766 85.9362,-1269.4773 85.9362,-1183.2548 85.9362,-1183.2548 85.9362,-1183.2548 85.9362,-535.23 85.9362,-255.5712 400.945,-371.9034 673.9362,-311.2 802.4216,-282.6295 951.7856,-257.6076 1050.4415,-242.1999"/>
<polygon fill="#000000" stroke="#000000" points="1051.0808,-245.6426 1060.4238,-240.6467 1050.0045,-238.7258 1051.0808,-245.6426"/>
</g>
<!-- PizzaBaker -->
<g id="node10" class="node">
<title>PizzaBaker</title>
<path fill="#525199" stroke="#525199" stroke-width="2" d="M396.1045,-1388.2556C396.1045,-1388.2556 247.7679,-1388.2556 247.7679,-1388.2556 241.7679,-1388.2556 235.7679,-1382.2556 235.7679,-1376.2556 235.7679,-1376.2556 235.7679,-1301.4539 235.7679,-1301.4539 235.7679,-1295.4539 241.7679,-1289.4539 247.7679,-1289.4539 247.7679,-1289.4539 396.1045,-1289.4539 396.1045,-1289.4539 402.1045,-1289.4539 408.1045,-1295.4539 408.1045,-1301.4539 408.1045,-1301.4539 408.1045,-1376.2556 408.1045,-1376.2556 408.1045,-1382.2556 402.1045,-1388.2556 396.1045,-1388.2556"/>
<text text-anchor="middle" x="321.9362" y="-1332.2548" font-family="ING Me" font-size="22.00" fill="#ffffff">PizzaBaker</text>
</g>
<!-- pizzaId&#45;&gt;PizzaBaker -->
<g id="edge6" class="edge">
<title>pizzaId-&gt;PizzaBaker</title>
<path fill="none" stroke="#000000" d="M187.6437,-1445.6047C207.1034,-1430.1361 230.3694,-1411.6418 252.0263,-1394.4266"/>
<polygon fill="#000000" stroke="#000000" points="254.272,-1397.1125 259.9222,-1388.1501 249.9162,-1391.6329 254.272,-1397.1125"/>
</g>
<!-- PizzaBaker&#45;&gt;PizzaProcess -->
<g id="edge9" class="edge">
<title>PizzaBaker-&gt;PizzaProcess</title>
<path fill="none" stroke="#000000" d="M331.7448,-1289.6219C333.7548,-1279.5332 335.913,-1268.7001 338.0555,-1257.9464"/>
<polygon fill="#000000" stroke="#000000" points="341.4925,-1258.6076 340.0139,-1248.1164 334.6274,-1257.2398 341.4925,-1258.6076"/>
</g>
<!-- PizzaOrder -->
<g id="node11" class="node">
<title>PizzaOrder</title>
<path fill="#d5d5d5" stroke="#767676" stroke-width="2" d="M132.169,-1709.6335C132.169,-1709.6335 10.8309,-1649.9293 10.8309,-1649.9293 5.4473,-1647.2803 5.4473,-1641.9823 10.8309,-1639.3333 10.8309,-1639.3333 132.169,-1579.6291 132.169,-1579.6291 137.5526,-1576.9801 148.3198,-1576.9801 153.7034,-1579.6291 153.7034,-1579.6291 275.0415,-1639.3333 275.0415,-1639.3333 280.4251,-1641.9823 280.4251,-1647.2803 275.0415,-1649.9293 275.0415,-1649.9293 153.7034,-1709.6335 153.7034,-1709.6335 148.3198,-1712.2825 137.5526,-1712.2825 132.169,-1709.6335"/>
<text text-anchor="middle" x="142.9362" y="-1638.0313" font-family="ING Me" font-size="22.00" fill="#000000">PizzaOrder</text>
</g>
<!-- PizzaOrder&#45;&gt;pizzaId -->
<g id="edge11" class="edge">
<title>PizzaOrder-&gt;pizzaId</title>
<path fill="none" stroke="#000000" d="M142.9362,-1573.8738C142.9362,-1565.4072 142.9362,-1556.7804 142.9362,-1548.3657"/>
<polygon fill="#000000" stroke="#000000" points="146.4363,-1548.2318 142.9362,-1538.2318 139.4363,-1548.2319 146.4363,-1548.2318"/>
</g>
</g>
</svg>