<?xml version="1.0" encoding="UTF-8" standalone="no"?><!DOCTYPE svg PUBLIC "-//W3C//DTD SVG 1.1//EN" "http://www.w3.org/Graphics/SVG/1.1/DTD/svg11.dtd"><!-- Generated by graphviz version 2.40.1 (20161225.0304)
 --><!-- Title: %0 Pages: 1 --><svg xmlns="http://www.w3.org/2000/svg" xmlns:xlink="http://www.w3.org/1999/xlink" width="1693pt" height="1786pt" viewBox="0.00 0.00 1692.88 1786.23">
<g id="graph0" class="graph" transform="scale(1 1) rotate(0) translate(14.4 1771.8313)">
<title>%0</title>
<polygon fill="#ffffff" stroke="transparent" points="-14.4,14.4 -14.4,-1771.8313 1678.4846,-1771.8313 1678.4846,14.4 -14.4,14.4"/>
<!-- getIngredientsRequest -->
<g id="node1" class="node">
<title>getIngredientsRequest</title>
<ellipse fill="#ff6200" stroke="#ff6200" cx="461.9362" cy="-968.8424" rx="150.3248" ry="150.3248"/>
<text text-anchor="middle" x="461.9362" y="-962.2424" font-family="ING Me" font-size="22.00" fill="#ffffff">getIngredientsRequest</text>
</g>
<!-- PizzaIngredientApi -->
<g id="node3" class="node">
<title>PizzaIngredientApi</title>
<path fill="#525199" stroke="#525199" stroke-width="2" d="M658.4796,-782.6309C658.4796,-782.6309 439.3928,-782.6309 439.3928,-782.6309 433.3928,-782.6309 427.3928,-776.6309 427.3928,-770.6309 427.3928,-770.6309 427.3928,-695.8292 427.3928,-695.8292 427.3928,-689.8292 433.3928,-683.8292 439.3928,-683.8292 439.3928,-683.8292 658.4796,-683.8292 658.4796,-683.8292 664.4796,-683.8292 670.4796,-689.8292 670.4796,-695.8292 670.4796,-695.8292 670.4796,-770.6309 670.4796,-770.6309 670.4796,-776.6309 664.4796,-782.6309 658.4796,-782.6309"/>
<text text-anchor="middle" x="548.9362" y="-726.63" font-family="ING Me" font-size="22.00" fill="#ffffff">PizzaIngredientApi</text>
</g>
<!-- getIngredientsRequest&#45;&gt;PizzaIngredientApi -->
<g id="edge1" class="edge">
<title>getIngredientsRequest-&gt;PizzaIngredientApi</title>
<path fill="none" stroke="#000000" d="M514.0513,-827.705C518.6416,-815.2736 523.0986,-803.2032 527.2065,-792.078"/>
<polygon fill="#000000" stroke="#000000" points="530.5407,-793.1526 530.7213,-782.5593 523.974,-790.7279 530.5407,-793.1526"/>
</g>
<!-- GetIngredientsResponse404Unit -->
<g id="node2" class="node">
<title>GetIngredientsResponse404Unit</title>
<path fill="#767676" stroke="#767676" d="M1321.1976,-645.4393C1321.1976,-645.4393 1013.378,-580.1209 1013.378,-580.1209 1007.5086,-578.8755 1007.5086,-576.3846 1013.378,-575.1391 1013.378,-575.1391 1321.1976,-509.8208 1321.1976,-509.8208 1327.0669,-508.5753 1338.8055,-508.5753 1344.6748,-509.8208 1344.6748,-509.8208 1652.4944,-575.1391 1652.4944,-575.1391 1658.3638,-576.3846 1658.3638,-578.8755 1652.4944,-580.1209 1652.4944,-580.1209 1344.6748,-645.4393 1344.6748,-645.4393 1338.8055,-646.6847 1327.0669,-646.6847 1321.1976,-645.4393"/>
<text text-anchor="middle" x="1332.9362" y="-571.03" font-family="ING Me" font-size="22.00" fill="#ffffff">GetIngredientsResponse404Unit</text>
</g>
<!-- headers -->
<g id="node6" class="node">
<title>headers</title>
<ellipse fill="#ff6200" stroke="#ff6200" cx="923.9362" cy="-412.415" rx="58.6306" ry="58.6306"/>
<text text-anchor="middle" x="923.9362" y="-405.815" font-family="ING Me" font-size="22.00" fill="#ffffff">headers</text>
</g>
<!-- GetIngredientsResponse404Unit&#45;&gt;headers -->
<g id="edge12" class="edge">
<title>GetIngredientsResponse404Unit-&gt;headers</title>
<path fill="none" stroke="#000000" d="M1218.7351,-531.4986C1144.2533,-501.4118 1049.775,-463.2474 988.1337,-438.3475"/>
<polygon fill="#000000" stroke="#000000" points="989.1138,-434.9687 978.5307,-434.4684 986.4919,-441.4592 989.1138,-434.9687"/>
</g>
<!-- PizzaBin -->
<g id="node10" class="node">
<title>PizzaBin</title>
<path fill="#525199" stroke="#525199" stroke-width="2" d="M1396.8634,-461.8158C1396.8634,-461.8158 1269.009,-461.8158 1269.009,-461.8158 1263.009,-461.8158 1257.009,-455.8158 1257.009,-449.8158 1257.009,-449.8158 1257.009,-375.0142 1257.009,-375.0142 1257.009,-369.0142 1263.009,-363.0142 1269.009,-363.0142 1269.009,-363.0142 1396.8634,-363.0142 1396.8634,-363.0142 1402.8634,-363.0142 1408.8634,-369.0142 1408.8634,-375.0142 1408.8634,-375.0142 1408.8634,-449.8158 1408.8634,-449.8158 1408.8634,-455.8158 1402.8634,-461.8158 1396.8634,-461.8158"/>
<text text-anchor="middle" x="1332.9362" y="-405.815" font-family="ING Me" font-size="22.00" fill="#ffffff">PizzaBin</text>
</g>
<!-- GetIngredientsResponse404Unit&#45;&gt;PizzaBin -->
<g id="edge8" class="edge">
<title>GetIngredientsResponse404Unit-&gt;PizzaBin</title>
<path fill="none" stroke="#000000" d="M1332.9362,-507.0848C1332.9362,-495.4008 1332.9362,-483.3879 1332.9362,-472.0081"/>
<polygon fill="#000000" stroke="#000000" points="1336.4363,-471.7629 1332.9362,-461.7629 1329.4363,-471.763 1336.4363,-471.7629"/>
</g>
<!-- PizzaIngredientApi&#45;&gt;GetIngredientsResponse404Unit -->
<g id="edge15" class="edge">
<title>PizzaIngredientApi-&gt;GetIngredientsResponse404Unit</title>
<path fill="none" stroke="#000000" d="M670.5797,-710.3826C759.8574,-693.4938 884.0188,-669.7552 992.9362,-648.03 1045.9732,-637.4511 1103.595,-625.6404 1156.074,-614.7607"/>
<polygon fill="#000000" stroke="#000000" points="1157.0736,-618.128 1166.154,-612.6694 1155.6515,-611.2739 1157.0736,-618.128"/>
</g>
<!-- GetIngredientsResponse200ApplicationJson -->
<g id="node5" class="node">
<title>GetIngredientsResponse200ApplicationJson</title>
<path fill="#767676" stroke="#767676" d="M537.0899,-646.0159C537.0899,-646.0159 125.7441,-579.5444 125.7441,-579.5444 119.821,-578.5872 119.821,-576.6729 125.7441,-575.7157 125.7441,-575.7157 537.0899,-509.2442 537.0899,-509.2442 543.013,-508.2871 554.8594,-508.2871 560.7825,-509.2442 560.7825,-509.2442 972.1283,-575.7157 972.1283,-575.7157 978.0514,-576.6729 978.0514,-578.5872 972.1283,-579.5444 972.1283,-579.5444 560.7825,-646.0159 560.7825,-646.0159 554.8594,-646.973 543.013,-646.973 537.0899,-646.0159"/>
<text text-anchor="middle" x="548.9362" y="-571.03" font-family="ING Me" font-size="22.00" fill="#ffffff">GetIngredientsResponse200ApplicationJson</text>
</g>
<!-- PizzaIngredientApi&#45;&gt;GetIngredientsResponse200ApplicationJson -->
<g id="edge4" class="edge">
<title>PizzaIngredientApi-&gt;GetIngredientsResponse200ApplicationJson</title>
<path fill="none" stroke="#000000" d="M548.9362,-683.9972C548.9362,-675.806 548.9362,-667.1242 548.9362,-658.3925"/>
<polygon fill="#000000" stroke="#000000" points="552.4363,-658.1458 548.9362,-648.1458 545.4363,-658.1458 552.4363,-658.1458"/>
</g>
<!-- PizzaProcess -->
<g id="node4" class="node">
<title>PizzaProcess</title>
<path fill="#767676" stroke="#767676" d="M406.9648,-1291.0941C406.9648,-1291.0941 270.2319,-1230.5156 270.2319,-1230.5156 264.7462,-1228.0852 264.7462,-1223.2244 270.2319,-1220.7939 270.2319,-1220.7939 406.9648,-1160.2154 406.9648,-1160.2154 412.4505,-1157.785 423.4219,-1157.785 428.9076,-1160.2154 428.9076,-1160.2154 565.6405,-1220.7939 565.6405,-1220.7939 571.1262,-1223.2244 571.1262,-1228.0852 565.6405,-1230.5156 565.6405,-1230.5156 428.9076,-1291.0941 428.9076,-1291.0941 423.4219,-1293.5245 412.4505,-1293.5245 406.9648,-1291.0941"/>
<text text-anchor="middle" x="417.9362" y="-1219.0548" font-family="ING Me" font-size="22.00" fill="#ffffff">PizzaProcess</text>
</g>
<!-- PizzaProcess&#45;&gt;getIngredientsRequest -->
<g id="edge2" class="edge">
<title>PizzaProcess-&gt;getIngredientsRequest</title>
<path fill="none" stroke="#000000" d="M429.1531,-1160.1857C430.9254,-1149.8412 432.8218,-1138.7727 434.7757,-1127.3683"/>
<polygon fill="#000000" stroke="#000000" points="438.2669,-1127.717 436.506,-1117.2695 431.3675,-1126.5348 438.2669,-1127.717"/>
</g>
<!-- GetIngredientsResponse200ApplicationJson&#45;&gt;headers -->
<g id="edge3" class="edge">
<title>GetIngredientsResponse200ApplicationJson-&gt;headers</title>
<path fill="none" stroke="#000000" d="M665.7894,-526.1476C730.1714,-497.7827 807.5696,-463.6831 860.7226,-440.2653"/>
<polygon fill="#000000" stroke="#000000" points="862.2864,-443.401 870.0264,-436.1662 859.4641,-436.9951 862.2864,-443.401"/>
</g>
<!-- body -->
<g id="node8" class="node">
<title>body</title>
<ellipse fill="#ff6200" stroke="#ff6200" cx="548.9362" cy="-412.415" rx="42.3529" ry="42.3529"/>
<text text-anchor="middle" x="548.9362" y="-405.815" font-family="ING Me" font-size="22.00" fill="#ffffff">body</text>
</g>
<!-- GetIngredientsResponse200ApplicationJson&#45;&gt;body -->
<g id="edge14" class="edge">
<title>GetIngredientsResponse200ApplicationJson-&gt;body</title>
<path fill="none" stroke="#000000" d="M548.9362,-507.0848C548.9362,-493.1054 548.9362,-478.6551 548.9362,-465.3818"/>
<polygon fill="#000000" stroke="#000000" points="552.4363,-465.0207 548.9362,-455.0207 545.4363,-465.0207 552.4363,-465.0207"/>
</g>
<!-- PizzaDelivery -->
<g id="node9" class="node">
<title>PizzaDelivery</title>
<path fill="#525199" stroke="#525199" stroke-width="2" d="M565.0424,-296.6008C565.0424,-296.6008 392.83,-296.6008 392.83,-296.6008 386.83,-296.6008 380.83,-290.6008 380.83,-284.6008 380.83,-284.6008 380.83,-209.7992 380.83,-209.7992 380.83,-203.7992 386.83,-197.7992 392.83,-197.7992 392.83,-197.7992 565.0424,-197.7992 565.0424,-197.7992 571.0424,-197.7992 577.0424,-203.7992 577.0424,-209.7992 577.0424,-209.7992 577.0424,-284.6008 577.0424,-284.6008 577.0424,-290.6008 571.0424,-296.6008 565.0424,-296.6008"/>
<text text-anchor="middle" x="478.9362" y="-240.6" font-family="ING Me" font-size="22.00" fill="#ffffff">PizzaDelivery</text>
</g>
<!-- GetIngredientsResponse200ApplicationJson&#45;&gt;PizzaDelivery -->
<g id="edge9" class="edge">
<title>GetIngredientsResponse200ApplicationJson-&gt;PizzaDelivery</title>
<path fill="none" stroke="#000000" d="M513.3846,-512.9431C507.3015,-499.4936 501.7296,-485.1646 497.9362,-471.23 483.1138,-416.7819 478.9731,-352.3856 478.1768,-306.6404"/>
<polygon fill="#000000" stroke="#000000" points="481.676,-306.5488 478.0503,-296.5936 474.6765,-306.6369 481.676,-306.5488"/>
</g>
<!-- PizzaSuccess -->
<g id="node7" class="node">
<title>PizzaSuccess</title>
<path fill="#767676" stroke="#767676" d="M467.9382,-135.8997C467.9382,-135.8997 328.8743,-75.2004 328.8743,-75.2004 323.3753,-72.8002 323.3753,-67.9998 328.8743,-65.5996 328.8743,-65.5996 467.9382,-4.9003 467.9382,-4.9003 473.4372,-2.5001 484.4352,-2.5001 489.9342,-4.9003 489.9342,-4.9003 628.9981,-65.5996 628.9981,-65.5996 634.4971,-67.9998 634.4971,-72.8002 628.9981,-75.2004 628.9981,-75.2004 489.9342,-135.8997 489.9342,-135.8997 484.4352,-138.2999 473.4372,-138.2999 467.9382,-135.8997"/>
<text text-anchor="middle" x="478.9362" y="-63.8" font-family="ING Me" font-size="22.00" fill="#ffffff">PizzaSuccess</text>
</g>
<!-- body&#45;&gt;PizzaDelivery -->
<g id="edge5" class="edge">
<title>body-&gt;PizzaDelivery</title>
<path fill="none" stroke="#000000" d="M532.3472,-373.2614C523.8216,-353.1391 513.2585,-328.208 503.7825,-305.8427"/>
<polygon fill="#000000" stroke="#000000" points="506.921,-304.2783 499.7971,-296.4361 500.4756,-307.0092 506.921,-304.2783"/>
</g>
<!-- PizzaDelivery&#45;&gt;PizzaSuccess -->
<g id="edge16" class="edge">
<title>PizzaDelivery-&gt;PizzaSuccess</title>
<path fill="none" stroke="#000000" d="M478.9362,-197.9513C478.9362,-183.4513 478.9362,-167.19 478.9362,-151.2579"/>
<polygon fill="#000000" stroke="#000000" points="482.4363,-150.8575 478.9362,-140.8575 475.4363,-150.8576 482.4363,-150.8575"/>
</g>
<!-- PizzaError -->
<g id="node13" class="node">
<title>PizzaError</title>
<path fill="#767676" stroke="#767676" d="M1322.242,-312.0564C1322.242,-312.0564 1205.526,-252.6437 1205.526,-252.6437 1200.1789,-249.9219 1200.1789,-244.4781 1205.526,-241.7563 1205.526,-241.7563 1322.242,-182.3436 1322.242,-182.3436 1327.5891,-179.6217 1338.2833,-179.6217 1343.6304,-182.3436 1343.6304,-182.3436 1460.3464,-241.7563 1460.3464,-241.7563 1465.6935,-244.4781 1465.6935,-249.9219 1460.3464,-252.6437 1460.3464,-252.6437 1343.6304,-312.0564 1343.6304,-312.0564 1338.2833,-314.7783 1327.5891,-314.7783 1322.242,-312.0564"/>
<text text-anchor="middle" x="1332.9362" y="-240.6" font-family="ING Me" font-size="22.00" fill="#ffffff">PizzaError</text>
</g>
<!-- PizzaBin&#45;&gt;PizzaError -->
<g id="edge10" class="edge">
<title>PizzaBin-&gt;PizzaError</title>
<path fill="none" stroke="#000000" d="M1332.9362,-362.8451C1332.9362,-351.7065 1332.9362,-339.6085 1332.9362,-327.5737"/>
<polygon fill="#000000" stroke="#000000" points="1336.4363,-327.5018 1332.9362,-317.5019 1329.4363,-327.5019 1336.4363,-327.5018"/>
</g>
<!-- pizzaId -->
<g id="node11" class="node">
<title>pizzaId</title>
<ellipse fill="#ff6200" stroke="#ff6200" cx="142.9362" cy="-1523.543" rx="57.1767" ry="57.1767"/>
<text text-anchor="middle" x="142.9362" y="-1516.943" font-family="ING Me" font-size="22.00" fill="#ffffff">pizzaId</text>
</g>
<!-- pizzaId&#45;&gt;PizzaDelivery -->
<g id="edge7" class="edge">
<title>pizzaId-&gt;PizzaDelivery</title>
<path fill="none" stroke="#000000" d="M126.0657,-1468.9646C109.2578,-1409.6766 85.9362,-1311.8773 85.9362,-1225.6548 85.9362,-1225.6548 85.9362,-1225.6548 85.9362,-577.63 85.9362,-427.9163 255.0898,-332.4228 371.4468,-284.4452"/>
<polygon fill="#000000" stroke="#000000" points="372.8335,-287.6597 380.7795,-280.6518 370.1976,-281.175 372.8335,-287.6597"/>
</g>
<!-- PizzaBaker -->
<g id="node12" class="node">
<title>PizzaBaker</title>
<path fill="#525199" stroke="#525199" stroke-width="2" d="M448.1045,-1430.6556C448.1045,-1430.6556 299.7679,-1430.6556 299.7679,-1430.6556 293.7679,-1430.6556 287.7679,-1424.6556 287.7679,-1418.6556 287.7679,-1418.6556 287.7679,-1343.8539 287.7679,-1343.8539 287.7679,-1337.8539 293.7679,-1331.8539 299.7679,-1331.8539 299.7679,-1331.8539 448.1045,-1331.8539 448.1045,-1331.8539 454.1045,-1331.8539 460.1045,-1337.8539 460.1045,-1343.8539 460.1045,-1343.8539 460.1045,-1418.6556 460.1045,-1418.6556 460.1045,-1424.6556 454.1045,-1430.6556 448.1045,-1430.6556"/>
<text text-anchor="middle" x="373.9362" y="-1374.6548" font-family="ING Me" font-size="22.00" fill="#ffffff">PizzaBaker</text>
</g>
<!-- pizzaId&#45;&gt;PizzaBaker -->
<g id="edge6" class="edge">
<title>pizzaId-&gt;PizzaBaker</title>
<path fill="none" stroke="#000000" d="M191.6431,-1493.5412C218.7456,-1476.847 253.324,-1455.5478 285.0649,-1435.9965"/>
<polygon fill="#000000" stroke="#000000" points="287.2548,-1438.7583 293.9336,-1430.5337 283.5836,-1432.7983 287.2548,-1438.7583"/>
</g>
<!-- PizzaBaker&#45;&gt;PizzaProcess -->
<g id="edge11" class="edge">
<title>PizzaBaker-&gt;PizzaProcess</title>
<path fill="none" stroke="#000000" d="M387.8581,-1332.0219C390.9265,-1321.1708 394.2384,-1309.4587 397.504,-1297.9103"/>
<polygon fill="#000000" stroke="#000000" points="400.8767,-1298.8457 400.2299,-1288.2706 394.1408,-1296.9409 400.8767,-1298.8457"/>
</g>
<!-- PizzaOrder -->
<g id="node14" class="node">
<title>PizzaOrder</title>
<path fill="#d5d5d5" stroke="#767676" stroke-width="2" d="M132.169,-1752.0335C132.169,-1752.0335 10.8309,-1692.3293 10.8309,-1692.3293 5.4473,-1689.6803 5.4473,-1684.3823 10.8309,-1681.7333 10.8309,-1681.7333 132.169,-1622.0291 132.169,-1622.0291 137.5526,-1619.3801 148.3198,-1619.3801 153.7034,-1622.0291 153.7034,-1622.0291 275.0415,-1681.7333 275.0415,-1681.7333 280.4251,-1684.3823 280.4251,-1689.6803 275.0415,-1692.3293 275.0415,-1692.3293 153.7034,-1752.0335 153.7034,-1752.0335 148.3198,-1754.6825 137.5526,-1754.6825 132.169,-1752.0335"/>
<text text-anchor="middle" x="142.9362" y="-1680.4313" font-family="ING Me" font-size="22.00" fill="#000000">PizzaOrder</text>
</g>
<!-- PizzaOrder&#45;&gt;pizzaId -->
<g id="edge13" class="edge">
<title>PizzaOrder-&gt;pizzaId</title>
<path fill="none" stroke="#000000" d="M142.9362,-1616.2738C142.9362,-1607.8072 142.9362,-1599.1804 142.9362,-1590.7657"/>
<polygon fill="#000000" stroke="#000000" points="146.4363,-1590.6318 142.9362,-1580.6318 139.4363,-1590.6319 146.4363,-1590.6318"/>
</g>
</g>
</svg>